<svg xmlns="http://www.w3.org/2000/svg" viewBox="0 0 500 500"><g id="freepik--Character--inject-277"><path d="M443.63,444.55l9.87,23.83L467,485.13a2.53,2.53,0,0,1-.63,3.76h0a2.79,2.79,0,0,1-2.48.26c-5.27-2-24.61-9.32-25.23-11.1-.72-2.06-12.14-24.49-12.14-24.49Z" style="fill:#FF3838"></path><g style="opacity:0.6000000000000001"><path d="M466.32,488.89l-28.41-12.43.44,1a4.06,4.06,0,0,0,1.94,2c2.34,1.15,8.85,4.17,23.47,9.72a2.83,2.83,0,0,0,2.56-.29Z" style="fill:#fff"></path></g><g style="opacity:0.6000000000000001"><path d="M439.57,466.85a1.6,1.6,0,0,1,1.26,1.74,1.56,1.56,0,0,1-1.78,1.2,1.71,1.71,0,0,1-1.32-1.86,1.63,1.63,0,0,1,2-1" style="fill:#fff"></path></g><path d="M456.16,480.8a7.72,7.72,0,0,1,1.34-2.69,8.37,8.37,0,0,1,2.59-1.64c0-.06-.4-.12-1,0a4.2,4.2,0,0,0-2,1.24,3.9,3.9,0,0,0-1,2.1C456,480.44,456.09,480.81,456.16,480.8Z" style="fill:#263238"></path><path d="M459.3,483.27c.16.06.61-1,1.72-1.88a23.88,23.88,0,0,1,2.26-1.24,3.09,3.09,0,0,0-2.63.81C459.39,481.94,459.15,483.26,459.3,483.27Z" style="fill:#263238"></path><path d="M451.12,478a25,25,0,0,1,2.45-3.07,27,27,0,0,1,3.27-2.26,6.08,6.08,0,0,0-3.68,1.85C451.44,476.15,451,478,451.12,478Z" style="fill:#263238"></path><path d="M447.49,471c.13.12,1.24-1,3-1.73s3.32-.9,3.3-1.07a5.51,5.51,0,0,0-3.55.56C448.35,469.62,447.36,471,447.49,471Z" style="fill:#263238"></path><path d="M444.41,464.11a12.54,12.54,0,0,1,3-1.88,14.16,14.16,0,0,1,3.6-.51c0-.06-.38-.25-1.08-.34a6.16,6.16,0,0,0-2.73.32,5.82,5.82,0,0,0-2.26,1.47C444.51,463.68,444.35,464.07,444.41,464.11Z" style="fill:#263238"></path><path d="M446.83,460.93a2.25,2.25,0,0,0-.36-.91,7,7,0,0,0-1.77-2,3.18,3.18,0,0,0-1.81-.82,1.07,1.07,0,0,0-1,.66,1.7,1.7,0,0,0,.08,1.22,4,4,0,0,0,4.51,1.93,4.28,4.28,0,0,0,3.13-3.68,1.47,1.47,0,0,0-.44-1.17,1.11,1.11,0,0,0-1.26-.09,3.67,3.67,0,0,0-1.26,1.45,7.35,7.35,0,0,0-.86,2.49,2,2,0,0,0,0,1,11.11,11.11,0,0,1,1.23-3.26,3.37,3.37,0,0,1,1.13-1.24.58.58,0,0,1,.69.05,1,1,0,0,1,.24.78,3.82,3.82,0,0,1-2.75,3.16,3.44,3.44,0,0,1-3.85-1.58,1.24,1.24,0,0,1-.1-.85.59.59,0,0,1,.57-.38,3,3,0,0,1,1.54.67A10.23,10.23,0,0,1,446.83,460.93Z" style="fill:#263238"></path><path d="M412.73,453l-5.31,18.24S425,482.55,424.36,486l-37.31-8.6,7.06-28.74Z" style="fill:#FF3838"></path><g style="opacity:0.6000000000000001"><path d="M396.27,467a1.54,1.54,0,0,0-1.47,1.43,1.46,1.46,0,0,0,1.45,1.4,1.62,1.62,0,0,0,1.56-1.51,1.55,1.55,0,0,0-1.69-1.3" style="fill:#fff"></path></g><g style="opacity:0.6000000000000001"><path d="M387.05,477.41l.71-2.9,35.58,9.35s1.49,1.07,1,2.15Z" style="fill:#fff"></path></g><path d="M408.07,471.21c-.05.17-1,0-2,.39s-1.7,1-1.85.87.37-1.05,1.64-1.46S408.15,471.06,408.07,471.21Z" style="fill:#263238"></path><path d="M411.59,473.66c0,.18-.86.29-1.67.89s-1.18,1.33-1.36,1.28,0-1.06,1-1.78S411.63,473.49,411.59,473.66Z" style="fill:#263238"></path><path d="M412.69,478.66c-.18,0-.21-.94.5-1.78s1.65-1,1.69-.87-.61.55-1.18,1.26S412.87,478.68,412.69,478.66Z" style="fill:#263238"></path><path d="M408.8,466.92c-.12.14-.9-.29-1.94-.46s-1.93,0-2-.22.87-.61,2.1-.39S408.92,466.81,408.8,466.92Z" style="fill:#263238"></path><g style="opacity:0.30000000000000004"><polygon points="411.67 456.62 410.73 459.87 392.43 455.49 393.35 451.7 411.67 456.62"></polygon></g><path d="M409.8,463.22a3.57,3.57,0,0,1-1.87-.44,8.47,8.47,0,0,1-1.81-1,9.6,9.6,0,0,1-.94-.79,2.37,2.37,0,0,1-.45-.55.75.75,0,0,1,.15-.95,1.07,1.07,0,0,1,.89-.22,2.54,2.54,0,0,1,.68.26,6.62,6.62,0,0,1,1.07.65,6.69,6.69,0,0,1,1.45,1.48c.67,1,.8,1.68.73,1.7s-.38-.6-1.1-1.44a7.75,7.75,0,0,0-1.44-1.28,5.91,5.91,0,0,0-1-.56c-.38-.2-.71-.28-.85-.13s-.07.08,0,.21a1.82,1.82,0,0,0,.33.4,10.12,10.12,0,0,0,.86.77,10.68,10.68,0,0,0,1.64,1.08A15.86,15.86,0,0,1,409.8,463.22Z" style="fill:#263238"></path><path d="M409.5,463.42a2.8,2.8,0,0,1-.06-1.84,5.75,5.75,0,0,1,.75-1.9,6,6,0,0,1,.74-1,1.65,1.65,0,0,1,1.42-.63.89.89,0,0,1,.66.68,2.85,2.85,0,0,1,0,.7,3.92,3.92,0,0,1-.31,1.21,4.15,4.15,0,0,1-1.26,1.66,2.54,2.54,0,0,1-1.77.73c0-.1.68-.29,1.46-1.05a4.34,4.34,0,0,0,1-1.55,3.51,3.51,0,0,0,.23-1c0-.39,0-.73-.19-.73a1.14,1.14,0,0,0-.81.44,6.29,6.29,0,0,0-1.51,2.56C409.57,462.72,409.6,463.42,409.5,463.42Z" style="fill:#263238"></path><path d="M428.16,253.21s11.91,21.73,11.71,45.29-23.72,168.91-23.72,168.91L387.9,459.7c-.7,4.68,10.76-47.66,15.07-72.9,4.24-24.85-8.87-115.58-8.87-115.58L426,253.13" style="fill:#455a64"></path><path d="M362.38,268.53s-4.05,25.16,3.1,42.39,63.74,159.72,63.74,159.72l25.83-11.4-55-189.2Z" style="fill:#455a64"></path><path d="M438.17,404.12c-.16,0-7.21-24.22-15.73-54.2s-15.31-54.32-15.15-54.37,7.21,24.22,15.74,54.2S438.33,404.07,438.17,404.12Z" style="fill:#263238"></path><path d="M429.22,470.64c-.16.06-11.48-28-25.28-62.68s-24.87-62.83-24.71-62.89,11.47,28,25.28,62.69S429.37,470.59,429.22,470.64Z" style="fill:#263238"></path><path d="M417.9,120.13a3,3,0,0,0-1.08-1.72c-1.28-1-2.95-1.08-4.54-1.13a19,19,0,0,1-1.86-6,3.8,3.8,0,0,0,2.14-.61,1.42,1.42,0,0,0,.35-.11c1.53-.7,1.68-3,.72-4.35a8.77,8.77,0,0,0-4.18-2.69c1.15.07,2.13.84,3.24,1.18s2.64,0,2.77-1.18a2.5,2.5,0,0,0-.17-1c-.21-.67-.43-1.35-.64-2a2.28,2.28,0,0,0-.9-1.41,5,5,0,0,0-1.17-.28c-1.29-.35-1.95-1.91-3.24-2.27-.94-.27-1.91.2-2.87.42s-2.22,0-2.52-.89a9.21,9.21,0,0,0,3.28-2.77,3.15,3.15,0,0,0-.31-4,4.62,4.62,0,0,0-3.24-.67c-1.26.06-2.82.35-3.15,1.56a3.27,3.27,0,0,0-4,2.57l-3.24-.33c.91-1,2.19-1.57,3-2.64s.64-3-.66-3.29a8.57,8.57,0,0,1-1.44-.13c-.33-.13-.6-.42-.95-.43a1.24,1.24,0,0,0-.7.27l-6.84,4.46c.62-1.43,1.23-2.86,1.85-4.3s1-3.14-.17-4-2.82.35-3.06,1.72a2.23,2.23,0,0,0-2.71,2.05,2.32,2.32,0,0,0-2.63.71,2.34,2.34,0,0,0,0,2.73,6.36,6.36,0,0,0-3.25,1,2,2,0,0,0-3.17-1.35,3.43,3.43,0,0,0-.51-1.95,1.18,1.18,0,0,0-1.76-.2,2.29,2.29,0,0,0-3.71-2.24l-1.13-1.36a3,3,0,0,0-2.91,1.5c-.47,1.06.32,2.58,1.48,2.48-.81,0-.63,1.28-.16,1.94l2,2.75a2.54,2.54,0,0,0-3.14-.28,2,2,0,0,0-2.83,0,1.59,1.59,0,0,0-2.86.48c-.2-.53-.93-.57-1.49-.5a3.63,3.63,0,0,0-2.26.77c-.58.57-.58,1.76.19,2-.7-.39-1.59.38-1.6,1.17a2.84,2.84,0,0,0,1.14,2,6.66,6.66,0,0,1,1.63,1.72,3.33,3.33,0,0,0-2.29-.48,8.68,8.68,0,0,0-4.14.82c-.24-.56-1-.58-1.62-.46a9.73,9.73,0,0,0-4.94,2.68c-.63.64-1.19,1.6-.76,2.39a2.38,2.38,0,0,0,.91.81l4.39,2.72a12,12,0,0,0-6,4.25c-.88.51-2,.57-2.78,1.2s-.74,2.31.28,2.31a1.84,1.84,0,0,0-.54,2.16,1.76,1.76,0,0,0,.68.75,2.79,2.79,0,0,0,.48.55,3.72,3.72,0,0,0,1.18.62,2.32,2.32,0,0,0,2,.9,9.28,9.28,0,0,0-2.09,2.47,3.91,3.91,0,0,0,0,4,1.33,1.33,0,0,0,.16.17,1.86,1.86,0,0,0,.84,1.22,1.59,1.59,0,0,0-.16,1.07,4.29,4.29,0,0,0-1,7.52c1,.71,2.88.58,3-.66a3.31,3.31,0,0,0,2.53,1.85,3.24,3.24,0,0,0,1.69,4.45,3.44,3.44,0,0,0,1.09,5.63,2.64,2.64,0,1,0,5,1.74,5.73,5.73,0,0,0,2,2.47,1.94,1.94,0,0,0,2.73-.72,3.63,3.63,0,0,0,5.33,1.73,2.34,2.34,0,0,0,4.66.41l6.05-.06a21.36,21.36,0,0,0,4-.29,10.83,10.83,0,0,0,4.61-2.13,3.69,3.69,0,0,1,1.4-.85,3.76,3.76,0,0,1,1.85.29,9.79,9.79,0,0,0,9.3-2.2,4.83,4.83,0,0,1,1.23-1,4.28,4.28,0,0,1,1.78-.25,17.64,17.64,0,0,0,4.4-.63,4.67,4.67,0,0,0,3.1-2c.58-1.13-.1-2.89-1.37-2.87a2.76,2.76,0,0,1,.67-2.3,1.66,1.66,0,0,1,2.24-.09,1.19,1.19,0,0,1-.55,1.93c1.37,1,3.5-.38,3.53-2a3.27,3.27,0,0,0-3.28-3,7.56,7.56,0,0,0,.1-3.66,2.69,2.69,0,0,0,3.66.41,4.66,4.66,0,0,0,3,2.16,2.78,2.78,0,0,0,3.07-1.67,2,2,0,0,0-1.9-2.58,2.39,2.39,0,0,0-2.12-3.46,3.74,3.74,0,0,0-2.27-4,2,2,0,0,0,2.78-1.07c.77,1.21,2.65.91,3.89.19C417.25,122.4,418.18,121.59,417.9,120.13Z" style="fill:#263238"></path><path d="M417.9,120.13a2.33,2.33,0,0,1,.07.5,2.15,2.15,0,0,1-.46,1.39,4.76,4.76,0,0,1-2,1.38,4.11,4.11,0,0,1-1.57.27,2,2,0,0,1-1.59-.84l.13,0a2,2,0,0,1-2.9,1.13l.08-.16a3.82,3.82,0,0,1,2.34,4l-.11-.12a2.32,2.32,0,0,1,2.08,1.11,2.36,2.36,0,0,1,.15,2.51l-.11-.18a2,2,0,0,1,2,1.53,2.21,2.21,0,0,1-1,2.51,3.21,3.21,0,0,1-2.91.27,5.16,5.16,0,0,1-2.37-2l.21,0a2.84,2.84,0,0,1-3.87-.43l.26-.13a7.68,7.68,0,0,1-.09,3.74l-.15-.2a3.67,3.67,0,0,1,2.26.84,3.09,3.09,0,0,1,1.18,2.17,2.57,2.57,0,0,1-1.19,2.25,2.32,2.32,0,0,1-2.6.14l-.38-.27.46-.05a1,1,0,0,0,.67-1.14,1,1,0,0,0-1.14-.83,1.61,1.61,0,0,0-1.38.84,2.8,2.8,0,0,0-.31,1.74l-.19-.16a1.56,1.56,0,0,1,1.21.56,2.35,2.35,0,0,1,.54,1.2,2.29,2.29,0,0,1-.17,1.31,3.18,3.18,0,0,1-.81,1,6.24,6.24,0,0,1-2.33,1.13,18,18,0,0,1-2.55.53c-1.71.36-3.68-.34-4.8,1.25a10.15,10.15,0,0,1-7.72,2.68,14.77,14.77,0,0,1-2.78-.61,1.66,1.66,0,0,0-1.24.14,9.84,9.84,0,0,0-1.13.83,11.06,11.06,0,0,1-2.58,1.44,15.57,15.57,0,0,1-5.91.86l-6.07.06.23-.2a2.57,2.57,0,0,1-5.12-.45l.37.2a3.87,3.87,0,0,1-5.69-1.84h.45a1.76,1.76,0,0,1-1.29,1.08,2.55,2.55,0,0,1-1.71-.2,5.63,5.63,0,0,1-2.14-2.6l.44,0a2.88,2.88,0,1,1-5.45-1.89l.16.32a3.46,3.46,0,0,1-2.2-2.62,3.5,3.5,0,0,1,1-3.44l.08.43a3.49,3.49,0,0,1-1.83-4.81l.19.37a3.6,3.6,0,0,1-2.73-2l.48-.09a1.32,1.32,0,0,1-.39.84,1.75,1.75,0,0,1-.8.41,2.77,2.77,0,0,1-1.68-.14,4.27,4.27,0,0,1-2.17-2.51,4.37,4.37,0,0,1,.18-3.38,4.62,4.62,0,0,1,2.5-2.34l-.16.29a1.84,1.84,0,0,1,.18-1.23l.1.33a2.16,2.16,0,0,1-1-1.38l.06.11a3.77,3.77,0,0,1-.49-3.82,8.28,8.28,0,0,1,2.43-3.21l.2.45a2.55,2.55,0,0,1-2.19-1l.13.09a3.16,3.16,0,0,1-1.8-1.26l.07.07a1.94,1.94,0,0,1-.95-1.58,2.12,2.12,0,0,1,.79-1.76l.16.47a1,1,0,0,1-.82-.42,1.47,1.47,0,0,1-.26-.82,1.88,1.88,0,0,1,.64-1.54c.9-.69,2-.73,2.81-1.21l-.08.07A12.23,12.23,0,0,1,346,107.8l-.06.47L344,107l-1.53-.94a14,14,0,0,1-1.53-1,1.59,1.59,0,0,1-.49-.93,2,2,0,0,1,.16-1,4.38,4.38,0,0,1,1.14-1.49,10,10,0,0,1,3.07-1.94,10.27,10.27,0,0,1,1.74-.52,2.63,2.63,0,0,1,1,0,1.14,1.14,0,0,1,.88.64l-.37-.12a7.28,7.28,0,0,1,3.33-.82c.56,0,1.1-.06,1.68-.05a2.88,2.88,0,0,1,1.71.55l-.39.32c-.49-1-1.69-1.49-2.4-2.58a2,2,0,0,1-.23-1.93,1.66,1.66,0,0,1,.73-.73,1.12,1.12,0,0,1,1.08,0l-.21.46a1.13,1.13,0,0,1-.69-.74,1.75,1.75,0,0,1,.46-1.77,2.5,2.5,0,0,1,.78-.47,6.13,6.13,0,0,1,1.66-.34,3,3,0,0,1,.89,0,1.07,1.07,0,0,1,.79.64l-.49.06a1.84,1.84,0,0,1,3.34-.57l-.43-.05a2.21,2.21,0,0,1,3.22,0l-.34,0A2.79,2.79,0,0,1,366,92l-.38.33-1.68-2.34a3.3,3.3,0,0,1-.7-1.34,1.66,1.66,0,0,1,0-.83.81.81,0,0,1,.27-.43.76.76,0,0,1,.49-.15l0,.5a1.71,1.71,0,0,1-1.62-1,2.11,2.11,0,0,1-.08-1.88,3.28,3.28,0,0,1,3.12-1.6h.11l.07.09,1.13,1.36-.35,0a2.54,2.54,0,0,1,4.11,2.49l-.43-.21a1.18,1.18,0,0,1,1.17-.38,1.61,1.61,0,0,1,1,.61,3.74,3.74,0,0,1,.53,2.06l-.41-.16a2.2,2.2,0,0,1,3.58,1.53l-.37-.21a6.66,6.66,0,0,1,3.38-1l-.19.38a2.49,2.49,0,0,1,2.93-3.8l-.32.22a2.44,2.44,0,0,1,3-2.27l-.29.18a2.72,2.72,0,0,1,.92-1.55,2.34,2.34,0,0,1,1.69-.61A1.79,1.79,0,0,1,388.1,83a3.08,3.08,0,0,1,.14,1.74,14.33,14.33,0,0,1-1.12,3.09c-.43,1-.85,2-1.27,2.93l-.32-.27,4.22-2.76,2.07-1.34a5.15,5.15,0,0,1,1.12-.64.94.94,0,0,1,.74.12c.19.1.35.22.5.29a3.24,3.24,0,0,0,1.12.09,1.56,1.56,0,0,1,1.19.58,2.63,2.63,0,0,1,.25,2.47,4.68,4.68,0,0,1-1.57,1.83,14,14,0,0,0-1.75,1.44l-.13-.34,3.24.33-.22.17A3.48,3.48,0,0,1,400.58,90l-.24.14A2.22,2.22,0,0,1,402,88.67a7.89,7.89,0,0,1,2.09-.27,6,6,0,0,1,2.06.23A2.53,2.53,0,0,1,407.69,90a3.75,3.75,0,0,1-.67,3.81,10.93,10.93,0,0,1-3,2.31l.08-.2a1.33,1.33,0,0,0,1.13.83,3.33,3.33,0,0,0,1.53-.13,11.26,11.26,0,0,1,1.57-.39,2.41,2.41,0,0,1,1.6.31c.94.57,1.49,1.5,2.34,1.9.4.23.9.16,1.41.36a1.89,1.89,0,0,1,1,1.18l.85,2.67a1.65,1.65,0,0,1-.11,1.42,1.86,1.86,0,0,1-1.17.76,3,3,0,0,1-1.34,0,6.43,6.43,0,0,1-1.21-.45,6.34,6.34,0,0,0-2.24-.79l.06-.24a14.74,14.74,0,0,1,2.65,1.27,5,5,0,0,1,1.87,2,3.65,3.65,0,0,1,.18,2.49,2.28,2.28,0,0,1-1.61,1.61l0,0a3.82,3.82,0,0,1-2.2.62l.1-.1a19.32,19.32,0,0,0,1.83,6l-.06,0a11.23,11.23,0,0,1,3,.37,4.18,4.18,0,0,1,1.83,1.07,2.82,2.82,0,0,1,.65,1.07,1.91,1.91,0,0,1,.1.4,3.16,3.16,0,0,0-.79-1.42,4.27,4.27,0,0,0-1.82-1,11.43,11.43,0,0,0-3-.33h0l0,0a19,19,0,0,1-1.89-6l0-.1h.11a3.72,3.72,0,0,0,2.09-.6h0a2,2,0,0,0,1.46-1.48,3.4,3.4,0,0,0-.18-2.34,4.73,4.73,0,0,0-1.79-1.88,15.37,15.37,0,0,0-2.61-1.24l-.75-.29.8.05a6.76,6.76,0,0,1,2.34.79,5,5,0,0,0,1.15.43,2.8,2.8,0,0,0,1.22,0,1.6,1.6,0,0,0,1-.64,1.37,1.37,0,0,0,.07-1.19l-.85-2.64a1.6,1.6,0,0,0-.8-1,11.12,11.12,0,0,1-1.42-.37c-1-.47-1.52-1.41-2.37-1.9s-1.91-.18-2.92.12a3.65,3.65,0,0,1-1.68.14,1.68,1.68,0,0,1-1.4-1l0-.13.12-.07a10.6,10.6,0,0,0,2.87-2.24,3.41,3.41,0,0,0,.62-3.44A2.19,2.19,0,0,0,406,89a5.59,5.59,0,0,0-1.93-.2,7.75,7.75,0,0,0-2,.25,1.86,1.86,0,0,0-1.38,1.18l-.06.19-.19-.05a3.07,3.07,0,0,0-3.76,2.4l0,.19h-.19l-3.24-.33-.41,0,.28-.3a16.44,16.44,0,0,1,1.79-1.49,4.13,4.13,0,0,0,1.44-1.65,2.21,2.21,0,0,0-.19-2.05,1.11,1.11,0,0,0-.88-.42,3.66,3.66,0,0,1-1.27-.13c-.42-.21-.69-.48-1-.38a5,5,0,0,0-1,.58L390,88.07l-4.22,2.76-.62.4.3-.67,1.25-2.94a14.08,14.08,0,0,0,1.09-3,2.63,2.63,0,0,0-.11-1.48,1.31,1.31,0,0,0-1.07-.8,2.19,2.19,0,0,0-2.11,1.78l-.05.26-.25-.07a2,2,0,0,0-2.4,1.82v.35l-.33-.13a2,2,0,0,0-2.37,3.08l.28.37h-.46a6.15,6.15,0,0,0-3.14.94l-.38.24,0-.45a1.73,1.73,0,0,0-2.76-1.18l-.39.39,0-.55a3.26,3.26,0,0,0-.43-1.79c-.31-.44-1.1-.61-1.4-.21l-.67.91L370,87a2,2,0,0,0-3.31-2l-.19.16-.16-.19c-.38-.45-.75-.9-1.13-1.37l.18.09A2.82,2.82,0,0,0,362.72,85c-.44.85.24,2.25,1.2,2.16l0,.5c-.16,0-.22,0-.27.22a1.27,1.27,0,0,0,0,.58,2.8,2.8,0,0,0,.62,1.16L366,92l-.38.34a2.28,2.28,0,0,0-2.81-.26l-.19.14-.16-.18A1.71,1.71,0,0,0,360,92l-.26.31-.16-.36a1.34,1.34,0,0,0-2.37.4l-.12,1.28-.38-1.22c-.1-.33-.67-.4-1.16-.34a5.47,5.47,0,0,0-1.52.3,1.39,1.39,0,0,0-.94.94c-.12.44,0,1,.39,1.08l-.22.47c-.35-.22-.89.08-1.1.52a1.42,1.42,0,0,0,.21,1.41c.57.94,1.78,1.44,2.42,2.62l.61,1.12-1-.8c-.75-.61-2-.41-3-.39a6.89,6.89,0,0,0-3.1.76l-.26.15-.11-.27c-.14-.37-.77-.43-1.28-.33a9.64,9.64,0,0,0-1.64.49,9.28,9.28,0,0,0-2.9,1.84,3.85,3.85,0,0,0-1,1.31,1.12,1.12,0,0,0,.21,1.35,14.59,14.59,0,0,0,1.45,1l1.52.94,2,1.25.49.3-.55.17a11.71,11.71,0,0,0-5.87,4.16l0,0,0,0c-1,.54-2,.6-2.75,1.17a1.39,1.39,0,0,0-.45,1.11c0,.42.23.76.57.74l.82,0-.66.51a1.6,1.6,0,0,0-.59,1.33,1.42,1.42,0,0,0,.71,1.16l.05,0,0,0a2.68,2.68,0,0,0,1.52,1.06l.08,0,.05.07a2,2,0,0,0,1.73.8l.78-.07-.58.52a7.91,7.91,0,0,0-2.3,3,3.29,3.29,0,0,0,.39,3.3l0,0,0,.07a1.65,1.65,0,0,0,.72,1.05l.21.12-.11.22a1.38,1.38,0,0,0-.14.9l.05.21-.21.08a4.15,4.15,0,0,0-2.22,2.08,3.88,3.88,0,0,0-.16,3,3.8,3.8,0,0,0,1.88,2.21,2.31,2.31,0,0,0,1.37.12.91.91,0,0,0,.8-.79l.06-1,.42.9a3.12,3.12,0,0,0,2.34,1.7l.37,0-.18.32a3,3,0,0,0,1.55,4.09l.44.14-.36.29a3,3,0,0,0-.86,3,2.93,2.93,0,0,0,1.86,2.25l.24.08-.08.24a2.39,2.39,0,0,0,4.52,1.57l.18-.54.26.5a5.29,5.29,0,0,0,1.94,2.41,1.7,1.7,0,0,0,2.33-.62l.23-.68.22.69a3.21,3.21,0,0,0,2.19,2,3.17,3.17,0,0,0,2.77-.38l.39-.28,0,.47a2.11,2.11,0,0,0,4.2.38l0-.2h.2l6.07-.05a15.08,15.08,0,0,0,5.75-.81,10.93,10.93,0,0,0,2.48-1.38,10.15,10.15,0,0,1,1.19-.87,2.1,2.1,0,0,1,1.53-.18,14.61,14.61,0,0,0,2.73.61,9.77,9.77,0,0,0,7.4-2.55,4.88,4.88,0,0,1,1.07-.88,3.06,3.06,0,0,1,1.37-.32,22,22,0,0,0,2.59-.15,16.9,16.9,0,0,0,2.49-.51,5.94,5.94,0,0,0,2.19-1,2.17,2.17,0,0,0,.86-2,1.53,1.53,0,0,0-1.37-1.44h-.17l0-.16a3.25,3.25,0,0,1,.36-2,2,2,0,0,1,1.69-1,1.4,1.4,0,0,1,1.5,1.14,1.31,1.31,0,0,1-1,1.54l.07-.32a2,2,0,0,0,2.21-.13,2.27,2.27,0,0,0,1.05-2,3.14,3.14,0,0,0-3.11-2.71h-.21l.06-.2A7.4,7.4,0,0,0,406,133l-.15-.65.42.52a2.55,2.55,0,0,0,3.45.4l.12-.1.09.13a4.83,4.83,0,0,0,2.22,1.92,2.94,2.94,0,0,0,2.68-.23,2,2,0,0,0,.93-2.22,1.79,1.79,0,0,0-1.77-1.36l-.23,0,.12-.2a2.29,2.29,0,0,0-2-3.3l-.14,0,0-.14a3.64,3.64,0,0,0-2.2-3.85l.08-.15a1.89,1.89,0,0,0,2.67-1l0-.17.09.15a1.84,1.84,0,0,0,1.48.79,4.2,4.2,0,0,0,1.53-.24,4.81,4.81,0,0,0,2-1.33,2.15,2.15,0,0,0,.48-1.34C417.93,120.3,417.88,120.13,417.9,120.13Z" style="fill:#455a64"></path><path d="M362.49,125.11a19.29,19.29,0,0,1,18.92-20.33,19.85,19.85,0,0,1,20.12,18.15c.8,9,1.39,18,1.14,21.3-.77,9.82-6.87,13.27-9.32,14.27a13.31,13.31,0,0,1-2.68.47h0s-.06,0-.06.07l1.5,11.44c.53,7.46-4.1,13.78-11.69,14.37s-13.15-5.47-13.82-12.94Z" style="fill:#ffbe9d"></path><path d="M398.06,130.64a1.58,1.58,0,0,1-1.4,1.7,1.54,1.54,0,0,1-1.76-1.28,1.57,1.57,0,0,1,1.4-1.7A1.54,1.54,0,0,1,398.06,130.64Z" style="fill:#263238"></path><path d="M399.05,125.45c-.18.22-1.46-.56-3.17-.43s-2.89,1.08-3.09.89.07-.47.58-.9a4.44,4.44,0,0,1,2.46-1,4.27,4.27,0,0,1,2.54.59C398.93,125,399.14,125.35,399.05,125.45Z" style="fill:#263238"></path><path d="M381.81,131.57a1.57,1.57,0,0,1-1.4,1.7,1.52,1.52,0,0,1-1.75-1.28,1.58,1.58,0,0,1,1.4-1.7A1.52,1.52,0,0,1,381.81,131.57Z" style="fill:#263238"></path><path d="M382.26,127.07c-.18.22-1.46-.56-3.17-.42s-2.89,1.07-3.09.88.07-.47.58-.9a4.44,4.44,0,0,1,2.46-1,4.27,4.27,0,0,1,2.54.59C382.14,126.62,382.35,127,382.26,127.07Z" style="fill:#263238"></path><path d="M389.5,139.05a12,12,0,0,1,2.74-.71c.44-.08.84-.19.89-.49a2.1,2.1,0,0,0-.4-1.25c-.49-1-1-2.06-1.56-3.17-2.18-4.51-3.8-8.23-3.61-8.32s2.1,3.51,4.28,8l1.51,3.19a2.44,2.44,0,0,1,.37,1.67,1.08,1.08,0,0,1-.67.68,2.76,2.76,0,0,1-.73.16A10.8,10.8,0,0,1,389.5,139.05Z" style="fill:#263238"></path><path d="M390.6,159s-6.56,1-15.22-3.19c.52.26,3,9.91,15.63,6.27Z" style="fill:#eb996e"></path><path d="M389.12,143.16a3.13,3.13,0,0,0-2.86-.91,2.78,2.78,0,0,0-1.86,1.17,1.76,1.76,0,0,0,0,2,2.11,2.11,0,0,0,2.29.38,6.35,6.35,0,0,0,2.08-1.45,1.94,1.94,0,0,0,.45-.54.54.54,0,0,0-.06-.62" style="fill:#eb996e"></path><path d="M384.57,140.61c.27,0,.43,1.78,2.13,2.95s3.65.82,3.69,1.07-.41.39-1.25.48a4.7,4.7,0,0,1-3.07-.79,4,4,0,0,1-1.67-2.49C384.27,141.07,384.44,140.61,384.57,140.61Z" style="fill:#263238"></path><path d="M382.21,121.63c-.14.47-1.86.39-3.85.78s-3.56,1.06-3.87.67c-.13-.18.12-.64.73-1.13a6.74,6.74,0,0,1,2.81-1.22,6.63,6.63,0,0,1,3.07.12C381.86,121.08,382.26,121.41,382.21,121.63Z" style="fill:#263238"></path><path d="M398.18,121c-.27.4-1.49.1-2.9.19s-2.6.46-2.91.08c-.14-.18,0-.58.51-1a4.27,4.27,0,0,1,4.68-.22C398.1,120.46,398.29,120.84,398.18,121Z" style="fill:#263238"></path><path d="M404.15,111.07a11.24,11.24,0,0,0-.24-1.63,5,5,0,0,0-1.45-2c-2.08-2-4.27-4.14-6.88-4.82-1.6-.41-3.26-.26-4.86-.65a29,29,0,0,1-2.91-1.06,23.69,23.69,0,0,0-12.33-.66,19.35,19.35,0,0,0-6.62,2.15,23.48,23.48,0,0,0-5.94,5.4,36.19,36.19,0,0,0-6.62,10.65,17.65,17.65,0,0,0-.95,10.07c.78,3.35,3.15,6.36,6.06,6.82l1-1.38,1.61-2c-.27.82,0,.76.68,1.14a1.39,1.39,0,0,0,1.92-.71c.58.66,1.73-.16,1.48-1.06.68.3,1.46-.64,1.18-1.44.78.23,1.13-1,1.45-1.87a13.42,13.42,0,0,1,.67-1.31,8.46,8.46,0,0,0,.86-4.63c.89-1.2,1-2.94,1.05-4.56l.12-3c.17-.24.33-.49.5-.74a1.61,1.61,0,0,0,1.2,1.46A3.51,3.51,0,0,0,377,115l1.76-.5,1.14.23a4.59,4.59,0,0,0,.57,2.89,2.81,2.81,0,0,0,1.17,1.53.85.85,0,0,0,1.1-1,.94.94,0,0,0,1.43-.34,3.13,3.13,0,0,0,.25-1.88,7.89,7.89,0,0,0-1.79-4.21l3.34,2.65a1.39,1.39,0,0,0,.8.4.83.83,0,0,0,.95.84,2.1,2.1,0,0,0,1.08-.87c.69-.86,1.38-2.28.64-3.12a.67.67,0,0,0,.22-1l3.74,2.39c-.37-.18-.72.4-.6.85a1.81,1.81,0,0,0,.82,1,2.77,2.77,0,0,0-.27,1.71c-.68-.52-1.55.61-1.27,1.51a2,2,0,0,0,2,1.3,1.4,1.4,0,0,0,1.49-1.16c.79.1,1.44-1,1.1-1.87.59.33,1-.72,1-1.48a10.92,10.92,0,0,0-.88-3.88c.08.1.2.14.29.06a.19.19,0,0,0,.06-.15l2.23,4.37a11.3,11.3,0,0,1,1.42,3.94c.06.58.19,1.36.68,1.38a.82.82,0,0,0,.37-.13,7.27,7.27,0,0,0,2.88-4,5.38,5.38,0,0,0,.34-1.74C405,113.46,404.34,112.31,404.15,111.07Z" style="fill:#263238"></path><path d="M364.38,130.85c-.17-.06-6.86-1.57-6.23,5.13s7.23,4.67,7.22,4.48S364.38,130.85,364.38,130.85Z" style="fill:#ffbe9d"></path><path d="M363.09,138.12s-.11.09-.3.2a1.19,1.19,0,0,1-.87.1,2.9,2.9,0,0,1-1.58-2.46,3.79,3.79,0,0,1,.17-1.7,1.34,1.34,0,0,1,.79-1,.6.6,0,0,1,.72.25c.1.18.07.32.11.33s.13-.13.05-.4a.72.72,0,0,0-.3-.39.86.86,0,0,0-.66-.11,1.64,1.64,0,0,0-1.12,1.15,4,4,0,0,0-.23,1.9,3,3,0,0,0,2,2.73,1.25,1.25,0,0,0,1-.28C363.09,138.28,363.11,138.13,363.09,138.12Z" style="fill:#eb996e"></path><path d="M388.64,109.55a1.54,1.54,0,0,0,.38-.9,1.19,1.19,0,0,0-.39-1,1.24,1.24,0,0,0-1.31-.22l-.27.11.1-.28a1.32,1.32,0,0,0-.48-1.45,1.3,1.3,0,0,0-1.66.2l-.24-.19a.53.53,0,0,0,.08-.17.74.74,0,0,0-.16-.62.85.85,0,0,0-.58-.3,1.36,1.36,0,0,0-.66.09,1.9,1.9,0,0,1-.74.23c-.33,0-.49-.26-.66-.35a2.85,2.85,0,0,0-.55-.28,2.82,2.82,0,0,0-1.09-.15,2.89,2.89,0,0,0-1.53.51c-.32.22-.46.39-.48.37a1.55,1.55,0,0,1,.41-.47,2.92,2.92,0,0,1,1.58-.63,3.11,3.11,0,0,1,1.19.13,2.72,2.72,0,0,1,.62.3c.2.12.36.29.53.29a1.82,1.82,0,0,0,.61-.22,1.71,1.71,0,0,1,.81-.12,1.16,1.16,0,0,1,.77.41,1,1,0,0,1,.23.88.9.9,0,0,1-.13.28l-.24-.19a1.54,1.54,0,0,1,2.61,1.54l-.17-.16a1.48,1.48,0,0,1,1.56.3,1.35,1.35,0,0,1,.39,1.15,1.31,1.31,0,0,1-.31.72C388.74,109.51,388.65,109.56,388.64,109.55Z" style="fill:#455a64"></path><path d="M396.29,110.85a2,2,0,0,0,.5-.89,1.52,1.52,0,0,0-.17-1.13,1.55,1.55,0,0,0-1.25-.75h-.21l.13-.18a1.89,1.89,0,0,0,.37-1.68,1.06,1.06,0,0,0-.66-.63.81.81,0,0,0-.88.2l-.77,1,.53-1.14a1.58,1.58,0,0,0,0-1.31,1.45,1.45,0,0,0-1.11-.8,1.56,1.56,0,0,0-1,.19l-.33.2.11-.38c.16-.53-.42-1.08-.94-1.11A2.61,2.61,0,0,0,389,103l-.27.18.06-.32a1.11,1.11,0,0,0-.45-1,2,2,0,0,0-1.07-.37,5.14,5.14,0,0,0-1.92.21,7.65,7.65,0,0,0-1.56.72,1.34,1.34,0,0,1,.35-.3,5.13,5.13,0,0,1,1.16-.58,5.34,5.34,0,0,1,2-.28,2.23,2.23,0,0,1,1.2.4,1.35,1.35,0,0,1,.57,1.29l-.21-.14a2.85,2.85,0,0,1,1.73-.6,1.37,1.37,0,0,1,.92.45,1.07,1.07,0,0,1,.29,1l-.22-.17a1.82,1.82,0,0,1,1.19-.23,1.73,1.73,0,0,1,1.34,1,1.84,1.84,0,0,1,0,1.57l-.25-.16a1.08,1.08,0,0,1,1.2-.27,1.26,1.26,0,0,1,.82.8,2.1,2.1,0,0,1-.44,1.91l-.09-.19a1.76,1.76,0,0,1,1.4.9,1.63,1.63,0,0,1,.14,1.25,1.6,1.6,0,0,1-.41.69A.69.69,0,0,1,396.29,110.85Z" style="fill:#455a64"></path><path d="M412.54,110.86a1.16,1.16,0,0,0-.46-.79,1.49,1.49,0,0,0-1-.28,4.66,4.66,0,0,0-1.4.46l-.16.08v-.18a1.3,1.3,0,0,0-1.17-1.17,3.76,3.76,0,0,0-2.1.52l-.91.43.76-.66a1.08,1.08,0,0,0-.22-1.53,2.43,2.43,0,0,0-1.91-.28h-.09l-.58.11.46-.37a1.15,1.15,0,0,0-.28-1.8,1.73,1.73,0,0,0-1.91.35l-.58.54.36-.71a2.61,2.61,0,0,0-.24-2.63,2.4,2.4,0,0,0-1.87-1,2.8,2.8,0,0,0-1.4.3c-.3.16-.44.29-.45.27s0,0,.09-.1a1.38,1.38,0,0,1,.32-.24,2.55,2.55,0,0,1,1.44-.4,2.58,2.58,0,0,1,2.06,1,2.83,2.83,0,0,1,.3,2.9l-.22-.16a2,2,0,0,1,2.24-.42,1.48,1.48,0,0,1,.74,1,1.26,1.26,0,0,1-.41,1.25l-.12-.26.09,0a2.67,2.67,0,0,1,2.15.35,1.54,1.54,0,0,1,.54.95,1.13,1.13,0,0,1-.32,1l-.16-.24a4,4,0,0,1,2.27-.52,1.53,1.53,0,0,1,1.33,1.44l-.15-.1a4.21,4.21,0,0,1,1.48-.44,1.6,1.6,0,0,1,1.12.35,1.11,1.11,0,0,1,.39.63A.48.48,0,0,1,412.54,110.86Z" style="fill:#455a64"></path><path d="M402.77,96.23a1,1,0,0,1-.39.18,5.45,5.45,0,0,1-1.16.16,3.35,3.35,0,0,0-1.67.4,1.06,1.06,0,0,0-.52.78.78.78,0,0,0,.38.86l-.19.16c-.1-.38-.6-.59-1.05-.8a5.09,5.09,0,0,0-1.47-.49,1.85,1.85,0,0,0-1.42.34,1.22,1.22,0,0,0-.52,1.17l.08.37-.3-.23a3.45,3.45,0,0,0-2-.64,3.84,3.84,0,0,0-1.67.39,4.71,4.71,0,0,0-1.22.94,1.13,1.13,0,0,1,.23-.35,3,3,0,0,1,.91-.74,3.77,3.77,0,0,1,1.74-.48,3.56,3.56,0,0,1,2.22.66l-.23.14a1.51,1.51,0,0,1,.62-1.46,2.12,2.12,0,0,1,1.64-.41,5.14,5.14,0,0,1,1.55.51,6.7,6.7,0,0,1,.7.37,1.08,1.08,0,0,1,.5.64l.07.28-.26-.11a1.06,1.06,0,0,1-.54-1.16,1.37,1.37,0,0,1,.66-.95,3.62,3.62,0,0,1,1.79-.37,5.67,5.67,0,0,0,1.15-.08A4.16,4.16,0,0,1,402.77,96.23Z" style="fill:#455a64"></path><path d="M387.31,91.72a3.37,3.37,0,0,0-.79.18,2,2,0,0,0-.71.54,1.64,1.64,0,0,0-.39,1.06v.16l-.16,0a1,1,0,0,0-1.05.72,3,3,0,0,0,.08,1.67l.14.58-.41-.45-.06-.07a1.27,1.27,0,0,0-1.07-.34,1.4,1.4,0,0,0-.95.51,2.31,2.31,0,0,0-.46,1.84,4.36,4.36,0,0,0,.45,1.27,2.55,2.55,0,0,1,.23.46s-.14-.12-.33-.4a3.73,3.73,0,0,1-.56-1.3,2.44,2.44,0,0,1,.45-2,1.69,1.69,0,0,1,2.46-.2l.08.09-.26.13a3.21,3.21,0,0,1-.07-1.84,1.27,1.27,0,0,1,1.39-.87l-.16.13a1.85,1.85,0,0,1,.49-1.2,1.94,1.94,0,0,1,.82-.54,1.58,1.58,0,0,1,.62-.09C387.24,91.69,387.31,91.71,387.31,91.72Z" style="fill:#455a64"></path><path d="M374.9,102s-.15,0-.4-.06a2.37,2.37,0,0,1-1-.56,2.67,2.67,0,0,1-.82-1.46c-.06-.31-.07-.62-.27-.8s-.57-.3-.83-.63a1.53,1.53,0,0,1,.22-2.08v.23A4.8,4.8,0,0,1,370.39,95a1.73,1.73,0,0,1-.28-.8s.15.28.43.72A5.32,5.32,0,0,0,372,96.43l.16.11-.15.11a1.27,1.27,0,0,0-.15,1.67c.18.24.52.33.8.61a1.54,1.54,0,0,1,.34,1,2.56,2.56,0,0,0,.69,1.35A3.63,3.63,0,0,0,374.9,102Z" style="fill:#455a64"></path><path d="M371.24,105a.57.57,0,0,1-.25.06,3.38,3.38,0,0,1-.72,0,4,4,0,0,1-2.34-1.08l.2,0a2.61,2.61,0,0,1-1.7,1.09,2.75,2.75,0,0,1-1.14,0,1.68,1.68,0,0,1-1-.68,2.89,2.89,0,0,1-.16-.42.61.61,0,0,0-.21-.26,1.92,1.92,0,0,0-.73-.25,2.57,2.57,0,0,1-.8-.25.88.88,0,0,1-.5-.71l.21.11a2.69,2.69,0,0,1-1.84.21,2.92,2.92,0,0,1-1.28-.66,2.6,2.6,0,0,1-.57-.73,1,1,0,0,1-.1-.32,3.7,3.7,0,0,0,.78.92,2.71,2.71,0,0,0,1.22.56,2.47,2.47,0,0,0,1.66-.22l.19-.1v.22a.59.59,0,0,0,.36.46,2,2,0,0,0,.72.21,2.19,2.19,0,0,1,.84.3.94.94,0,0,1,.32.39c.06.16.09.3.14.4a1.41,1.41,0,0,0,.84.52,2.47,2.47,0,0,0,1,0,2.39,2.39,0,0,0,1.53-1l.09-.13.11.11a4.11,4.11,0,0,0,2.18,1.11C370.89,105,371.24,105,371.24,105Z" style="fill:#455a64"></path><path d="M348.18,116.36s0,0-.05-.11a1.85,1.85,0,0,1-.07-.31,3,3,0,0,1,0-1.21,7.39,7.39,0,0,1,.66-1.77,7.73,7.73,0,0,1,.59-1,1.81,1.81,0,0,1,.5-.45.77.77,0,0,1,.74-.06l-.18.14a2,2,0,0,1,3.12-2l-.23.15a1.4,1.4,0,0,1,.47-1.19,1.33,1.33,0,0,1,1.27-.26,1.3,1.3,0,0,1,.63.39l-.26.13a.87.87,0,0,1,.26-.74,1.2,1.2,0,0,1,.66-.34,2.62,2.62,0,0,1,1.32.22l-.18.07a2.22,2.22,0,0,1,1.23-1,3,3,0,0,1,1.48-.12,7.59,7.59,0,0,1,2.38.94l-.15.15a.53.53,0,0,1,0-.53.93.93,0,0,1,.34-.32,1.59,1.59,0,0,1,.8-.19,4.29,4.29,0,0,1,1.95.6c.15.1.23.16.22.17a10.27,10.27,0,0,0-1-.4,5.24,5.24,0,0,0-1.21-.2,1.5,1.5,0,0,0-.69.19c-.22.12-.4.36-.27.57l.2.32-.34-.17a7.88,7.88,0,0,0-2.32-.87,2.85,2.85,0,0,0-1.35.13,1.93,1.93,0,0,0-1.06.89l-.06.12-.12,0a2.47,2.47,0,0,0-1.18-.21c-.35.06-.72.4-.66.74l.09.53-.35-.41a1,1,0,0,0-.49-.3,1,1,0,0,0-1,.2,1.07,1.07,0,0,0-.37.92l0,.33-.28-.19a1.78,1.78,0,0,0-2,0,1.83,1.83,0,0,0-.7,1.72l0,.25-.22-.11c-.34-.16-.71.13-.94.43a6,6,0,0,0-.59,1,7.56,7.56,0,0,0-.71,1.7A4.15,4.15,0,0,0,348.18,116.36Z" style="fill:#455a64"></path><path d="M350.63,125.07a1,1,0,0,1-.17-.18,5.16,5.16,0,0,1-.41-.58,2.16,2.16,0,0,1-.33-1.09,1.6,1.6,0,0,1,.17-.71,1.11,1.11,0,0,1,.62-.56l-.05.16a1.43,1.43,0,0,1-.19-1.49,1.45,1.45,0,0,1,1.51-.8l-.12.23a1.14,1.14,0,0,1-.07-1.35,1.67,1.67,0,0,1,1.24-.72,4.39,4.39,0,0,0,.67-.06c.19,0,.3-.18.39-.39a2.55,2.55,0,0,1,.33-.69,1.38,1.38,0,0,1,.68-.46,7.67,7.67,0,0,1,1.61-.17,1.78,1.78,0,0,0,1.27-.49,6.77,6.77,0,0,0,.37-.62,1.5,1.5,0,0,1,.57-.52,1.61,1.61,0,0,1,1.42,0l-.16.21a1.21,1.21,0,0,1,0-1.41,1.7,1.7,0,0,1,1.09-.66,5.36,5.36,0,0,1,2,.08,6.77,6.77,0,0,1,1.22.37,1.82,1.82,0,0,1,.41.21,15.21,15.21,0,0,0-1.66-.43,5.34,5.34,0,0,0-1.92,0,1.45,1.45,0,0,0-.93.58.93.93,0,0,0,0,1.1l.36.45-.52-.25a1.36,1.36,0,0,0-1.18.06,1.26,1.26,0,0,0-.46.43,5.91,5.91,0,0,1-.38.64,1.58,1.58,0,0,1-.68.46,3.64,3.64,0,0,1-.8.15,7.55,7.55,0,0,0-1.53.16,1,1,0,0,0-.54.36,2.16,2.16,0,0,0-.29.61.89.89,0,0,1-.59.57,5.11,5.11,0,0,1-.72.07,1.38,1.38,0,0,0-1,.57.85.85,0,0,0,0,1l.26.29-.38-.06a1.19,1.19,0,0,0-1.25.64,1.23,1.23,0,0,0,.13,1.25l.1.12-.15.05a1.15,1.15,0,0,0-.68,1.08,2,2,0,0,0,.27,1C350.44,124.78,350.65,125.05,350.63,125.07Z" style="fill:#455a64"></path><path d="M349.69,141.5a.71.71,0,0,1-.31-.07,2.19,2.19,0,0,1-.73-.49,2.15,2.15,0,0,1-.62-1.24,2.31,2.31,0,0,1,.47-1.74v.17a4.23,4.23,0,0,1-.91-1.44,1.72,1.72,0,0,1,0-1,1.26,1.26,0,0,1,.66-.81v.27a1.76,1.76,0,0,1-.89-1.51,2,2,0,0,1,.23-1,1.64,1.64,0,0,1,.73-.7.59.59,0,0,0,.38-.59,2.32,2.32,0,0,1,.13-.9,3,3,0,0,1,1-1.31l1.07-.91a5,5,0,0,1,1.77-1,2.59,2.59,0,0,1,.55-.1c.13,0,.2,0,.2,0a6.53,6.53,0,0,0-.71.19,5.12,5.12,0,0,0-1.67,1.08l-1,.93a2.84,2.84,0,0,0-.93,1.21,2.15,2.15,0,0,0-.1.81.88.88,0,0,1-.13.52,1.19,1.19,0,0,1-.39.33,1.57,1.57,0,0,0-.08,2.7l.27.14-.28.13a1.2,1.2,0,0,0-.49,1.43,3.9,3.9,0,0,0,.84,1.35l.07.08-.07.08a2.15,2.15,0,0,0-.47,1.56,2.05,2.05,0,0,0,.52,1.16A3.15,3.15,0,0,0,349.69,141.5Z" style="fill:#455a64"></path><path d="M375.06,114.79a2.21,2.21,0,0,1-.92-.28,2.54,2.54,0,0,1-.88-.64,1.63,1.63,0,0,1-.4-1.28,1.15,1.15,0,0,1,.09-.33l.08.2a1.48,1.48,0,0,1-.83-.93,1.37,1.37,0,0,1,.11-1c.29-.51.68-.59.68-.56s-.29.18-.49.65a1.16,1.16,0,0,0,0,.83,1.21,1.21,0,0,0,.69.73l.14.06-.06.14a1,1,0,0,0-.07.25,1.44,1.44,0,0,0,.32,1.07,2.7,2.7,0,0,0,.76.62A4.72,4.72,0,0,1,375.06,114.79Z" style="fill:#455a64"></path><path d="M381.82,110.93a1.81,1.81,0,0,0,.12-1.13,1.26,1.26,0,0,0-.8-.88,1.34,1.34,0,0,0-1.42.35l-.18.19-.07-.25a2.38,2.38,0,0,0-.42-.86,1.1,1.1,0,0,0-.8-.48c-.49,0-1,.47-.83.86l-.28.08a2.27,2.27,0,0,0-1-1.43,2.21,2.21,0,0,0-1.33-.39,3.61,3.61,0,0,0-1.25.34s.08-.11.28-.23a2.27,2.27,0,0,1,.95-.29,2.33,2.33,0,0,1,1.49.36,2.46,2.46,0,0,1,1.11,1.58l-.28.09a.86.86,0,0,1,.23-.91,1.18,1.18,0,0,1,.88-.36,1.42,1.42,0,0,1,1,.59,2.78,2.78,0,0,1,.46,1l-.25,0a1.61,1.61,0,0,1,1.73-.39,1.42,1.42,0,0,1,.88,1.07,1.46,1.46,0,0,1-.1.91C381.92,110.86,381.83,110.94,381.82,110.93Z" style="fill:#455a64"></path><path d="M366.09,166.14s-13.34,5.51-16.78,7.73,11.84,50,11.84,50,7.29,19.71,5,28.34c-1.31,4.86-3.6,10-4.66,14.48a8.67,8.67,0,0,0,6.35,10.42c8.22,2,24.09,4.72,37.92.06a96.72,96.72,0,0,0,23.47-11.28,8.64,8.64,0,0,0,2.7-11.33,23.17,23.17,0,0,0-3.35-4.67c-4.43-4.78-7.86-22.91-8.73-27.89a8.52,8.52,0,0,1-.07-2.47c.54-4.69,2.27-21.87-.29-30.31-2-6.75-6.48-14.83-9.06-19.24A8.63,8.63,0,0,0,404.8,166l-13.67-3a13,13,0,0,0-3.57.2l-20.53,3Z" style="fill:#FF3838"></path><g style="opacity:0.30000000000000004"><path d="M366.84,250.47,364,258.63s17.45-5.16,23.26-11.49,11.48-11,14.07-11.19,13.71.23,15.6,1.86,8.31,6.07,8.31,6.07l-2.69-8.8L415.4,229l-21.92-3.12Z"></path></g><path d="M349.31,173.87s-5.74,3.78-6.12,13.82c0,0-.17,3.21-.27,8.09-.29,13.62-.65,40.28.26,46.86,1.64,11.88,11.11,13.67,16.09,13.85S391.67,236,391.67,236L384,223.43l-19.62,4.32s-.08-19,.16-25.41S349.31,173.87,349.31,173.87Z" style="fill:#FF3838"></path><path d="M406.12,166.38s12.27,3.39,16.8,14.33c4,9.6,29.54,53,15.22,60.3-10.35,5.26-22.79-8.23-22.79-8.23Z" style="fill:#FF3838"></path><path d="M419.11,213.79a27.63,27.63,0,0,0,.74-4.8,18.6,18.6,0,0,0-3.2-11,18.89,18.89,0,0,0-2.88-3.25,10.22,10.22,0,0,1-2.49-3.14l0-.06v-.06l1-6a14.05,14.05,0,0,1,.48-2.26,17.18,17.18,0,0,1-.22,2.3c-.21,1.56-.49,3.61-.82,6v-.12c.95,2.16,3.7,3.63,5.38,6.27A18.24,18.24,0,0,1,420.22,209a17,17,0,0,1-.63,3.56A6,6,0,0,1,419.11,213.79Z" style="fill:#263238"></path><path d="M423.13,220.39a16.91,16.91,0,0,1-.94-6.15,11.25,11.25,0,0,0-.32-3.75c-.37-1.2-1.67-2.35-2.9-2.1l-.79,9.21Z" style="fill:#ffbe9d"></path><path d="M419.74,199.39,417,232l-15.73.92.86-32a1.7,1.7,0,0,1,1.5-1.64l14.26-1.69A1.7,1.7,0,0,1,419.74,199.39Z" style="fill:#263238"></path><path d="M403.17,209.75a6.46,6.46,0,0,0,.12-1c.06-.68.13-1.57.22-2.64s.18-2.45.28-3.9c0-.19,0-.39,0-.54a1.06,1.06,0,0,1,.23-.43,1.07,1.07,0,0,1,.41-.28,2.85,2.85,0,0,1,.56-.09l2.46-.31c3.38-.42,6.44-.82,8.65-1.13l2.61-.38a5.41,5.41,0,0,0,1-.18,5.8,5.8,0,0,0-1,.06l-2.63.27c-2.22.25-5.28.61-8.66,1l-2.46.31a2.89,2.89,0,0,0-.62.11,1.49,1.49,0,0,0-.55.37,1.47,1.47,0,0,0-.29.57,4.4,4.4,0,0,0-.05.59c-.08,1.45-.15,2.78-.21,3.91s-.09,2-.12,2.64A4.3,4.3,0,0,0,403.17,209.75Z" style="fill:#455a64"></path><path d="M410.69,201.82a.78.78,0,0,1,1.5,0,.87.87,0,0,1-.33.84.8.8,0,0,1-.9,0A.71.71,0,0,1,410.69,201.82Z" style="fill:#fafafa"></path><path d="M412.27,211.36c.37,0,9.14,3.32,9.14,3.32l4.86,4a8.87,8.87,0,0,1,1.1,6.7c-.77,4.26-2.66,6-7.27,7.69l-9.15-.34-5-3.18a2.87,2.87,0,0,1-1.27-2.93l0-.2-.62-.8a1.56,1.56,0,0,1-.13-1.73h0a1.58,1.58,0,0,1,2.14-.6l5.57,3.13,3.57,0,.39-1.22-5.48-2.06L403,218.92a1.93,1.93,0,0,1-.62-2.73h0a1.94,1.94,0,0,1,2.4-.71l6.52,2.85,6.7,2-1.3-2.41-8.15-4.64S407.66,210.75,412.27,211.36Z" style="fill:#ffbe9d"></path><path d="M411,207.09s-1.84-.78-4.56.75-6.15,3.75-6.15,3.75L395,213.82l.48-1.44s5.48-.1,4.75-4l-3.25.53-3-1.1-4.87,6-1.49,6.82-3.07,3.25,6.07,10.22,8.81-3,7.85-.48,3.55-3.64-.05-4.09,3.38-4.38s.25-2-1.55-2-5.56,4.78-5.56,4.78l-4.27.61s-.81-.58-.26-1,12.44-8.17,12.83-9.63.86-2.44-.44-2.67a7,7,0,0,0-3.3.72S411.94,207.28,411,207.09Z" style="fill:#ffbe9d"></path><path d="M401.45,216.09a60.29,60.29,0,0,0,5.31-3.29c2.88-1.9,5.18-3.5,5.13-3.57a58.62,58.62,0,0,0-5.31,3.29A60.85,60.85,0,0,0,401.45,216.09Z" style="fill:#eb996e"></path><path d="M400.11,226.48a2.52,2.52,0,0,0,.66.13c.44.06,1.07.14,1.85.18a11.73,11.73,0,0,0,2.76-.14,8,8,0,0,0,3.14-1.28,14.14,14.14,0,0,0,4.05-4.57c.41-.67.71-1.22.91-1.61a3.15,3.15,0,0,0,.29-.62,21.65,21.65,0,0,0-1.39,2.11,15.27,15.27,0,0,1-4.05,4.41,8,8,0,0,1-3,1.27,13.22,13.22,0,0,1-2.69.2C401.08,226.52,400.11,226.42,400.11,226.48Z" style="fill:#eb996e"></path><path d="M384.53,223.9a1.81,1.81,0,0,0,.21-.2l.6-.61,2.31-2.4h0v0c.4-1.77.91-4.07,1.53-6.81l0,0,4.88-6-.13,0,3,1.11H397l3.25-.53-.15-.11a3.11,3.11,0,0,1-.13,1.63,2.77,2.77,0,0,1-1.07,1.26,7.21,7.21,0,0,1-3.42,1h-.1l0,.1-.48,1.43-.11.31.3-.13,5.3-2.22h0c1.59-1,3.25-2.05,5-3.06a13,13,0,0,1,2.67-1.33,5,5,0,0,1,2.93-.09h0c.31.06.48.42.53.81a4.3,4.3,0,0,1,0,1.24l-.05.3.28-.12a9.34,9.34,0,0,1,1.8-.62,2.85,2.85,0,0,1,1.83,0c.25.12.31.4.28.71a5.93,5.93,0,0,1-.21,1,3.19,3.19,0,0,1-.32.89,6.65,6.65,0,0,1-.69.72,76.13,76.13,0,0,1-6.51,4.88l-3.27,2.23L403,220.4l-.4.27a.89.89,0,0,0-.38.44.71.71,0,0,0,.13.58,1.49,1.49,0,0,0,.37.38l.05,0h.07l4.26-.62h.06l0-.05a27,27,0,0,1,3.66-3.8c.66-.5,1.4-1.06,2.18-.88a1.11,1.11,0,0,1,.84.66,2.4,2.4,0,0,1,.17,1.13l0-.07-3.37,4.39,0,0v.05c0,1.41,0,2.78.05,4.09l0-.09-3.55,3.66.08,0-7.85.51h0l-6.51,2.25-1.7.6-.43.15-.14.06.15,0,.44-.14,1.71-.56,6.54-2.17h0l7.85-.45h.05l0,0,3.56-3.63,0,0v0c0-1.32,0-2.68,0-4.09l0,.08,3.38-4.37,0,0v0a2.59,2.59,0,0,0-.19-1.29,1.59,1.59,0,0,0-.41-.55,1.55,1.55,0,0,0-.63-.28,2,2,0,0,0-1.33.21,6.77,6.77,0,0,0-1.1.73,26.52,26.52,0,0,0-3.71,3.84l.1-.06-4.27.62.12,0c-.22-.17-.44-.44-.38-.62s.41-.36.65-.54l1.62-1.09,3.27-2.23a76,76,0,0,0,6.55-4.91,5.27,5.27,0,0,0,.73-.76,1.25,1.25,0,0,0,.24-.51l.14-.49a5.6,5.6,0,0,0,.22-1,1.4,1.4,0,0,0,0-.57.84.84,0,0,0-.4-.45,3.06,3.06,0,0,0-2.06-.09,9.82,9.82,0,0,0-1.87.64l.23.18a4.64,4.64,0,0,0,0-1.34,1.78,1.78,0,0,0-.22-.66.89.89,0,0,0-.58-.43h0a5.12,5.12,0,0,0-3.15.09,13.21,13.21,0,0,0-2.74,1.36c-1.73,1-3.38,2.05-5,3.07h0l-5.29,2.23.19.18.49-1.43-.14.1a7.43,7.43,0,0,0,3.57-1,3.06,3.06,0,0,0,1.18-1.39,3.36,3.36,0,0,0,.13-1.77l0-.13-.13,0-3.25.54H397l-3-1.09-.08,0-.05.07-4.85,6v0c-.59,2.75-1.08,5.05-1.46,6.83l0,0L385.3,223l-.58.64C384.59,223.82,384.53,223.9,384.53,223.9Z" style="fill:#eb996e"></path><path d="M366.85,227.3c0,.1-.8,0-2,0a11.06,11.06,0,0,0-8.2,4.34,19.07,19.07,0,0,1-1.16,1.66,4.16,4.16,0,0,1,.8-1.91,10,10,0,0,1,8.56-4.53A4.31,4.31,0,0,1,366.85,227.3Z" style="fill:#263238"></path><path d="M365.06,201.84c.17,0,.19,5.66,0,12.62s-.42,12.61-.59,12.61-.18-5.65,0-12.62S364.89,201.84,365.06,201.84Z" style="fill:#263238"></path><path d="M343,190.36a1.59,1.59,0,0,1,0,.38c0,.28,0,.65,0,1.11,0,1-.05,2.45-.08,4.28-.06,3.75-.13,9.12-.22,15.73s-.08,14.55.14,23.32c0,1.1.07,2.21.11,3.33l.06,1.69c.05.56.11,1.12.17,1.69a21.92,21.92,0,0,0,.62,3.37,18,18,0,0,0,1.33,3.21,14.06,14.06,0,0,0,4.81,5.16,16.42,16.42,0,0,0,6.89,2.41l.43,0h0a10.64,10.64,0,0,0,5.33-.81,37.47,37.47,0,0,0,4.87-2.43c3.15-1.78,6.15-3.63,9-5.52a145.38,145.38,0,0,0,15-11.47l-.05.32-7.67-12.64.21.09c-5.4,1.12-9.67,2.13-12.61,2.75l-3.37.72-.87.17-.3,0a1.08,1.08,0,0,1,.28-.1L368,227l3.35-.82c2.93-.68,7.18-1.75,12.58-2.93l.14,0,.07.12,7.76,12.58.11.19-.16.14a142.25,142.25,0,0,1-15,11.58q-4.26,2.87-9,5.56a37.45,37.45,0,0,1-5,2.47,11.23,11.23,0,0,1-5.64.85h0l-.48,0a16.93,16.93,0,0,1-7.15-2.52,14.59,14.59,0,0,1-5-5.38,17.43,17.43,0,0,1-1.37-3.33,22.46,22.46,0,0,1-.64-3.47c-.05-.58-.11-1.16-.16-1.73l-.06-1.7c0-1.12-.07-2.24-.1-3.33-.19-8.79-.11-16.71,0-23.35s.27-12,.42-15.73c.08-1.82.15-3.26.19-4.28,0-.46.06-.82.08-1.11A2,2,0,0,1,343,190.36Z" style="fill:#263238"></path><path d="M433.65,242.19c0,.05-.3.07-.84.08a13.16,13.16,0,0,1-2.27-.17,18.94,18.94,0,0,1-3.3-.79,23.66,23.66,0,0,1-3.78-1.73,33.08,33.08,0,0,1-6-4.53,13.24,13.24,0,0,1-2.12-2.27,19.74,19.74,0,0,1,2.41,1.95,41.76,41.76,0,0,0,6,4.31,26,26,0,0,0,3.66,1.73,21.92,21.92,0,0,0,3.18.9C432.47,242.05,433.65,242.09,433.65,242.19Z" style="fill:#263238"></path><path d="M437.39,221.8c-.11.16-2.27-1.68-5.52-2.61s-6.05-.6-6.07-.8,2.83-.81,6.24.21S437.52,221.72,437.39,221.8Z" style="fill:#263238"></path><path d="M432.53,216.32c0,.18-1.67.1-3.61.57s-3.39,1.28-3.49,1.12a6,6,0,0,1,3.35-1.72C430.84,215.79,432.57,216.16,432.53,216.32Z" style="fill:#263238"></path><g style="opacity:0.30000000000000004"><path d="M364.28,226.75a7.57,7.57,0,0,0-10.48,1.43,3.8,3.8,0,0,0-.88,2.07,1.88,1.88,0,0,0,1.07,1.86c1,.39,2.13-.28,2.9-1a14.16,14.16,0,0,1,7.61-4"></path></g><g style="opacity:0.30000000000000004"><path d="M425.78,218.41c3.17-.32,6.21,1.23,9.36,1.78a2.23,2.23,0,0,0,1.67-.18,1.4,1.4,0,0,0,.55-1.19,2.22,2.22,0,0,0-.5-1.25A5.14,5.14,0,0,0,433,216a16,16,0,0,0-4.37.37,4.57,4.57,0,0,0-3.07,1.8"></path></g><path d="M365.54,170.87l-.7-8.6a43.92,43.92,0,0,0,14.82,2.22c8-.43,12.58-2.71,12.58-2.71l2.5,12.07-7.42,11.24-6.53,3-11.47-1.79Z" style="fill:#FF3838"></path><path d="M366.43,191.38c-.08,0-.34-1.44-1-3.72a22.43,22.43,0,0,0-3.92-8.22,11.34,11.34,0,0,0-11.45-4.36,2.71,2.71,0,0,1,1-.35,8.25,8.25,0,0,1,2.84-.17,12.33,12.33,0,0,1,8,4.55,21,21,0,0,1,3.88,8.46c.27,1.16.43,2.12.52,2.78A3.49,3.49,0,0,1,366.43,191.38Z" style="fill:#263238"></path><path d="M392.24,161.78a3.75,3.75,0,0,1,.29,1,7.15,7.15,0,0,1,.17,1.23,2.54,2.54,0,0,1-.43,1.64A7.7,7.7,0,0,1,391,167.2a7.86,7.86,0,0,1-2,1.23,24.13,24.13,0,0,1-5,1.51,26.1,26.1,0,0,1-9.42.14,19.53,19.53,0,0,1-2.78-.66,4.25,4.25,0,0,1-1-.38c0-.09,1.45.37,3.82.68a28.75,28.75,0,0,0,9.26-.29,24.9,24.9,0,0,0,4.89-1.44,7.78,7.78,0,0,0,1.88-1.11,8.36,8.36,0,0,0,1.27-1.43,2.32,2.32,0,0,0,.44-1.42,9.73,9.73,0,0,0-.08-1.2A4.55,4.55,0,0,1,392.24,161.78Z" style="fill:#263238"></path><path d="M421.17,258.58s-.13.11-.4.26l-1.18.67c-.51.29-1.15.63-1.9,1s-1.61.8-2.58,1.21a72.77,72.77,0,0,1-6.92,2.63,72.71,72.71,0,0,1-17.77,3.39,72.52,72.52,0,0,1-7.4.1c-1.06,0-2-.12-2.84-.18s-1.55-.13-2.13-.21l-1.35-.19a1.31,1.31,0,0,1-.46-.1h.47l1.35.09c.59,0,1.31.1,2.14.12s1.78.1,2.83.1c2.09.05,4.59,0,7.35-.21a87.49,87.49,0,0,0,8.93-1.17,86.3,86.3,0,0,0,8.74-2.2c2.64-.83,5-1.69,6.92-2.51,1-.38,1.83-.79,2.59-1.13s1.41-.64,1.94-.9l1.22-.58C421,258.62,421.16,258.56,421.17,258.58Z" style="fill:#263238"></path></g></svg>